<svg width="32" height="32" viewBox="0 0 32 32" fill="none" xmlns="http://www.w3.org/2000/svg">
<circle cx="16" cy="16" r="16" fill="#047481"/>
<path d="M15.2615 18.2949L13.8227 19.7338C13.5193 20.0371 13.0371 20.0371 12.726 19.7415C12.6404 19.656 12.5549 19.5782 12.4693 19.4927C11.6682 18.6838 10.9449 17.836 10.2993 16.9493C9.66155 16.0627 9.14821 15.176 8.77488 14.2971C8.40932 13.4104 8.22266 12.5627 8.22266 11.7538C8.22266 11.2249 8.31599 10.7193 8.50266 10.2527C8.68932 9.77821 8.98488 9.34266 9.3971 8.95377C9.89488 8.46377 10.4393 8.22266 11.0149 8.22266C11.2327 8.22266 11.4504 8.26932 11.6449 8.36266C11.8471 8.45599 12.026 8.59599 12.166 8.79821L13.9704 11.3415C14.1104 11.536 14.2115 11.7149 14.2815 11.886C14.3515 12.0493 14.3904 12.2127 14.3904 12.3604C14.3904 12.5471 14.336 12.7338 14.2271 12.9127C14.126 13.0915 13.9782 13.2782 13.7915 13.4649L13.2004 14.0793C13.1149 14.1649 13.076 14.266 13.076 14.3904C13.076 14.4527 13.0838 14.5071 13.0993 14.5693C13.1227 14.6315 13.146 14.6782 13.1615 14.7249C13.3015 14.9815 13.5427 15.316 13.8849 15.7204C14.2349 16.1249 14.6082 16.5371 15.0127 16.9493C15.0904 17.0271 15.176 17.1049 15.2538 17.1827C15.5649 17.486 15.5727 17.9838 15.2615 18.2949Z" fill="white"/>
<path d="M23.7539 20.9236C23.7539 21.1414 23.715 21.3669 23.6373 21.5847C23.6139 21.6469 23.5906 21.7091 23.5595 21.7714C23.4273 22.0514 23.2561 22.3158 23.0306 22.5647C22.6495 22.9847 22.2295 23.288 21.755 23.4825C21.7473 23.4825 21.7395 23.4902 21.7317 23.4902C21.2728 23.6769 20.775 23.778 20.2384 23.778C19.445 23.778 18.5973 23.5914 17.7028 23.2102C16.8084 22.8291 15.9139 22.3158 15.0273 21.6702C14.7239 21.4447 14.4206 21.2191 14.1328 20.978L16.6761 18.4347C16.8939 18.598 17.0884 18.7225 17.2517 18.808C17.2906 18.8236 17.3373 18.8469 17.3917 18.8702C17.4539 18.8936 17.5161 18.9014 17.5861 18.9014C17.7184 18.9014 17.8195 18.8547 17.905 18.7691L18.4961 18.1858C18.6906 17.9914 18.8773 17.8436 19.0561 17.7502C19.235 17.6414 19.4139 17.5869 19.6084 17.5869C19.7561 17.5869 19.9117 17.618 20.0828 17.688C20.2539 17.758 20.4328 17.8591 20.6273 17.9914L23.2017 19.8191C23.4039 19.9591 23.5439 20.1225 23.6295 20.3169C23.7073 20.5114 23.7539 20.7058 23.7539 20.9236Z" fill="white"/>
</svg>
