<svg width="301" height="240" viewBox="0 0 301 240" fill="none" xmlns="http://www.w3.org/2000/svg">
<path d="M300.5 158.465L271.8 158.55L271.299 158.551V158.465L219.274 158.615L218.766 158.616L218.767 158.545L121.806 158.649L121.718 158.649L121.636 158.62L121.39 158.531L121.068 158.416L121.059 158.074L118.237 54.4041L118.197 52.9399L119.124 54.0741L141.048 80.9039L141.057 80.9148L141.057 80.9149C141.622 81.6478 142.04 82.217 142.45 82.7763C143.021 83.5535 143.577 84.3114 144.495 85.4624L146.472 87.642C144.744 84.4667 142.094 80.0922 139.276 75.5686C136.923 71.7934 134.476 67.9501 132.366 64.6369C130.918 62.3632 129.63 60.339 128.639 58.758L129.063 58.4926L128.639 58.7579C128.042 57.8028 127.533 57.0077 127.108 56.3424C126.764 55.8045 126.474 55.3515 126.235 54.9674C125.687 54.0854 125.336 53.4571 125.081 52.7785C124.826 52.1009 124.673 51.394 124.493 50.367C124.425 49.9838 124.355 49.56 124.275 49.0754C124.136 48.2393 123.967 47.222 123.732 45.9191C123.553 44.9228 123.398 44.2525 123.276 43.7255C123.213 43.4503 123.159 43.2142 123.114 42.9911C123.053 42.685 123.015 42.4098 123.027 42.1384C123.04 41.8567 123.106 41.6038 123.223 41.3345C123.336 41.0756 123.499 40.7952 123.704 40.4615C123.808 40.2927 123.927 40.1042 124.059 39.8933C124.192 39.6817 124.34 39.4456 124.504 39.1782C125.162 38.1106 126.094 36.5367 127.379 34.0713C128.879 31.1896 130.286 28.6828 131.793 25.9976C132.395 24.9244 133.014 23.8227 133.66 22.6572C133.661 22.6559 133.662 22.6545 133.662 22.6532L142.484 6.00687L117.75 40.0252L117.707 40.0848L117.648 40.1293C116.615 40.9144 115.817 41.1661 114.968 41.4336L114.956 41.4374C114.13 41.698 113.224 41.9842 111.869 42.8289C110.901 43.4332 110.43 43.837 110.164 44.1089C110.039 44.2364 109.954 44.3392 109.873 44.4377L109.856 44.4589C109.773 44.5596 109.671 44.6828 109.532 44.7915C109.245 45.016 108.87 45.1247 108.248 45.2415C107.648 45.354 106.727 45.4869 105.269 45.6973L104.971 45.7403L104.964 45.7414L104.956 45.7423L59.5469 50.8691C69.1772 51.2346 81.0324 50.7151 91.9686 50.2358C97.5042 49.9933 102.804 49.761 107.461 49.659L107.62 49.6556L107.752 49.7445L114.614 54.3752L114.841 54.5289L114.834 54.8034L111.993 157.985L111.979 158.47L111.494 158.471L76.4353 158.57L76.049 158.572L75.9504 158.198C75.3888 156.072 75.038 152.847 74.8124 149.084C74.5862 145.31 74.4841 140.959 74.4305 136.559C74.3969 133.804 74.3822 131.034 74.3681 128.373C74.3372 122.519 74.309 117.199 74.0883 113.759C74.034 112.912 73.9569 112.003 73.8767 111.06C73.6394 108.268 73.3762 105.169 73.6042 102.446C73.7575 100.615 74.1347 98.8961 74.9224 97.5128C75.7201 96.112 76.932 95.0697 78.6995 94.6096C79.6382 94.3647 81.4977 94.1686 83.7848 94.0038C86.0903 93.8377 88.8807 93.7004 91.7144 93.5837C94.3998 93.473 97.1193 93.3808 99.5084 93.2999C100.536 93.265 101.503 93.2323 102.379 93.201C101.491 93.0554 100.53 92.944 99.5146 92.859C97.0976 92.6567 94.4123 92.6068 91.7328 92.5868C91.1037 92.5821 90.4746 92.579 89.8496 92.576C87.8197 92.5661 85.8322 92.5565 84.0264 92.4913C81.672 92.4063 79.5753 92.2262 78.0612 91.8109M300.5 158.465L78.1934 91.3287M300.5 158.465V239.5H0.500001C0.500066 224.964 0.50631 212.674 1.04545 202.385C1.59096 191.975 2.68072 183.654 4.84356 177.156C7.00219 170.671 10.2209 166.027 15.0171 162.93C19.8252 159.825 26.2758 158.238 34.9677 157.986L35.4417 157.972L35.4531 157.498L36.298 122.32L36.3134 121.68L35.6887 121.82L27.1102 123.745M300.5 158.465L27.1102 123.745M78.0612 91.8109L78.1934 91.3287M78.0612 91.8109C78.0619 91.8111 78.0626 91.8113 78.0633 91.8115L78.1934 91.3287M78.0612 91.8109C78.0194 91.7993 77.9558 91.7742 77.923 91.7615C77.8706 91.7411 77.7989 91.7127 77.7113 91.6777C77.5358 91.6077 77.2927 91.5094 77.0038 91.3918C76.426 91.1566 75.6629 90.8428 74.8881 90.5194C74.1137 90.1962 73.3256 89.8625 72.6984 89.5878C72.385 89.4506 72.1093 89.327 71.8944 89.2261C71.6948 89.1323 71.5095 89.0409 71.4078 88.9723L71.4073 88.972C70.6011 88.4266 69.3876 87.1596 67.9886 85.5777C66.7264 84.1506 65.2746 82.4213 63.7725 80.6322C63.5908 80.4158 63.4083 80.1984 63.2254 79.9807C61.5275 77.9595 59.7858 75.898 58.1851 74.122C57.5705 73.4401 56.98 72.8041 56.4234 72.2309M78.1934 91.3287C78.0615 91.2931 72.1935 88.8993 71.6875 88.5578C70.2803 87.6058 67.3428 84.1071 64.1552 80.3104C61.079 76.6464 57.7699 72.705 55.3786 70.5077C55.6841 71.0457 56.0357 71.6228 56.4234 72.2309M56.4234 72.2309C57.7529 74.316 59.507 76.7647 61.2847 79.2465C61.6499 79.7563 62.0161 80.2675 62.3798 80.7772C63.8828 82.8836 65.3371 84.9571 66.4769 86.774C67.6047 88.5719 68.4665 90.1819 68.7294 91.3441C69.7077 95.6571 67.8307 100.362 65.5425 104.841C64.9047 106.09 64.2149 107.357 63.5381 108.6C63.0074 109.575 62.4846 110.535 62.0011 111.461C61.2167 112.962 60.515 114.407 59.9839 115.782C60.6249 115.106 61.2794 114.261 61.9448 113.298C63.0463 111.705 64.1436 109.841 65.2344 107.989L65.3144 107.853C66.4261 105.965 67.5327 104.093 68.6115 102.583C69.6745 101.096 70.7745 99.8651 71.8996 99.3675L72.9766 98.8911L72.5713 99.9968C72.3597 100.574 72.155 101.755 71.9691 103.458C71.7854 105.141 71.6248 107.283 71.4848 109.745C71.2049 114.668 71.0087 120.852 70.8732 127.171C70.6023 139.807 70.5748 152.963 70.6058 157.608L70.6089 158.068L70.151 158.11C64.0061 158.667 44.8077 158.832 38.3956 158.424L37.9407 158.395L37.9276 157.939L36.9256 123.082L36.9043 122.34L37.5999 122.599C39.5438 123.323 41.0718 124.188 42.6044 125.055L42.6412 125.076C43.2824 125.439 43.926 125.803 44.6055 126.161L42.5902 124.432C40.3858 122.754 39.1037 121.298 38.4551 119.906C37.7953 118.49 37.8152 117.192 38.099 115.899C38.2391 115.261 38.4445 114.618 38.6621 113.968C38.7037 113.843 38.7457 113.719 38.7879 113.594C38.9687 113.057 39.1529 112.511 39.3213 111.932C39.6154 110.922 39.8563 109.827 39.9232 108.59C38.9186 110.283 38.37 112.075 37.8322 113.832C37.7234 114.188 37.615 114.542 37.5033 114.894C36.7074 117.4 35.7387 119.78 33.112 121.19C31.9878 121.795 29.6675 122.766 27.1102 123.745M56.4234 72.2309C55.9122 71.7044 55.4297 71.231 54.9834 70.8237C56.3596 73.2305 58.6122 76.3748 60.8775 79.5368C64.2744 84.2783 67.6999 89.0597 68.2417 91.4545C69.4369 96.7229 66.1785 102.706 63.1071 108.346C61.5444 111.216 60.0302 113.996 59.1753 116.549L27.1102 123.745M72.1019 99.8247L71.6324 99.6527C71.5765 99.8051 71.5228 99.9848 71.4711 100.19C69.6456 101.483 67.6845 104.813 65.6607 108.25C63.6798 111.615 61.6388 115.081 59.606 116.839L72.1019 99.8247ZM72.1019 99.8247L72.3041 100.282C72.1758 100.339 72.045 100.41 71.9117 100.495C71.973 100.228 72.0364 100.003 72.1019 99.8247ZM104.437 93.1226C104.921 93.2514 105.374 93.3965 105.791 93.5599C105.397 93.5813 104.923 93.603 104.382 93.6253L104.437 93.1226Z" fill="white" stroke="#0062AA"/>
</svg>
