<svg width="324" height="268" viewBox="0 0 324 268" fill="none" xmlns="http://www.w3.org/2000/svg">
<path d="M235.522 176.983L131.113 177.1H131.023L130.938 177.069L130.673 176.97L130.357 176.852L130.348 176.514L127.31 60.7492L127.27 59.2433L128.202 60.4267L151.802 90.3866L151.81 90.3975C152.417 91.2132 152.866 91.8487 153.308 92.4734C153.924 93.343 154.525 94.1919 155.513 95.478L157.875 98.1805C156.021 94.6065 153.08 89.5638 149.946 84.3471C147.414 80.132 144.779 75.8388 142.508 72.1383C140.949 69.5993 139.562 67.3393 138.497 65.5751M235.522 176.983L235.521 177.063L236.029 177.061L292.067 176.894V176.99L292.569 176.989L323.5 176.894M235.522 176.983L323.5 176.894M138.497 65.5751L138.909 65.3263M138.497 65.5751C137.852 64.5065 137.305 63.6194 136.848 62.8772C136.478 62.2774 136.167 61.7723 135.909 61.3425C135.319 60.3583 134.945 59.6611 134.672 58.9098C134.4 58.1598 134.236 57.3761 134.043 56.2301C133.97 55.8037 133.895 55.3311 133.808 54.7902C133.659 53.8558 133.477 52.7177 133.224 51.2629C133.031 50.1497 132.863 49.3952 132.732 48.805C132.664 48.4988 132.605 48.2368 132.558 47.9919C132.493 47.6519 132.453 47.3518 132.466 47.058C132.479 46.7544 132.548 46.4808 132.672 46.1862C132.791 45.9019 132.964 45.5922 133.185 45.2195C133.286 45.049 133.4 44.8605 133.527 44.6514L133.566 44.5855C133.709 44.3492 133.869 44.0854 134.046 43.7865C134.755 42.5932 135.759 40.8343 137.143 38.0797C138.757 34.8627 140.271 32.0647 141.893 29.0665C142.541 27.868 143.207 26.6374 143.903 25.3353L143.905 25.3311L153.695 6.16833L126.722 44.6535L126.68 44.7137L126.622 44.7592C125.514 45.6321 124.659 45.9117 123.746 46.2106L123.734 46.2145C122.844 46.5056 121.866 46.8262 120.404 47.7717C119.36 48.4474 118.851 48.9003 118.561 49.2075C118.425 49.3514 118.332 49.4677 118.245 49.5777L118.226 49.6017C118.137 49.7142 118.03 49.8477 117.885 49.9656C117.584 50.2102 117.187 50.331 116.515 50.4617C115.871 50.5872 114.88 50.7356 113.31 50.9705L112.99 51.0185L112.982 51.0197L112.974 51.0207L63.3639 56.8313C70.2494 57.1368 78.2635 56.986 86.3774 56.6906C90.6177 56.5362 94.8882 56.3422 99.0349 56.1537C104.988 55.8831 110.686 55.6242 115.673 55.5109L115.837 55.5072L115.971 55.6012L123.357 60.7722L123.577 60.9263L123.57 61.195L120.512 176.414L120.499 176.9L120.014 176.901L82.2758 177.012L81.8859 177.013L81.7898 176.635C81.1872 174.269 80.8099 170.675 80.5671 166.473C80.3237 162.261 80.2138 157.402 80.1561 152.49C80.1199 149.416 80.1041 146.323 80.089 143.352C80.0556 136.814 80.0253 130.87 79.7876 127.026M79.7876 127.026L80.2866 126.995M79.7876 127.026C79.7289 126.076 79.6457 125.06 79.5593 124.005C79.3041 120.888 79.0215 117.438 79.2664 114.404C79.593 110.356 80.8832 106.741 84.7186 105.705C85.7268 105.432 87.7262 105.213 90.1884 105.029C92.6698 104.844 95.6731 104.69 98.7232 104.56C101.613 104.437 104.541 104.334 107.113 104.243C108.433 104.197 109.659 104.154 110.739 104.113C109.637 103.902 108.42 103.747 107.12 103.634C104.518 103.408 101.627 103.353 98.7424 103.33C98.0651 103.325 97.3879 103.322 96.715 103.318C94.53 103.307 92.3912 103.296 90.4477 103.224C87.9134 103.129 85.6586 102.928 84.0315 102.465M84.0315 102.465L84.1683 101.984M84.0315 102.465H84.0337L84.1683 101.984M84.0315 102.465C83.991 102.453 83.93 102.428 83.8927 102.413L83.8853 102.41C83.8289 102.388 83.7518 102.356 83.6576 102.317C83.4688 102.239 83.2071 102.129 82.8962 101.998C82.2743 101.735 81.453 101.385 80.6191 101.024C79.7856 100.663 78.9374 100.29 78.2625 99.9835C77.9253 99.8303 77.6287 99.6924 77.3978 99.5799C77.1822 99.4749 76.9853 99.3739 76.8785 99.2992C76.0158 98.6937 74.713 97.2835 73.2064 95.5163C71.8482 93.9231 70.2857 91.9925 68.6687 89.9944C68.4732 89.7529 68.2769 89.5103 68.0801 89.2673C66.2524 87.0104 64.3772 84.7076 62.6534 82.7236C61.8857 81.84 61.1525 81.0249 60.4705 80.3081M112.597 104.037C108.578 102.878 102.452 102.847 96.7117 102.818C91.6711 102.793 86.9276 102.769 84.1683 101.984M84.1683 101.984C84.0263 101.944 77.7099 99.2709 77.1653 98.8896C75.6505 97.8265 72.4885 93.9195 69.0574 89.68C65.7027 85.5348 62.0907 81.0718 59.5094 78.638C59.7931 79.1624 60.1159 79.7212 60.4705 80.3081M60.4705 80.3081C61.9279 82.7204 63.9215 85.6076 65.9413 88.5327C66.3345 89.1021 66.7287 89.673 67.1202 90.2422C68.7381 92.5944 70.3026 94.9084 71.5284 96.9356C72.7432 98.9445 73.6646 100.733 73.9447 102.018C74.9913 106.804 72.9841 112.036 70.52 117.04C69.8332 118.435 69.0921 119.847 68.3644 121.233C67.7931 122.322 67.2301 123.395 66.7083 124.431C65.8234 126.187 65.035 127.879 64.453 129.483C65.1892 128.702 65.9409 127.703 66.7047 126.557C67.8917 124.776 69.0738 122.693 70.2475 120.625L70.3342 120.472C71.5311 118.364 72.7209 116.275 73.8803 114.592C74.4607 113.75 75.0412 112.997 75.6197 112.389C76.1949 111.784 76.7896 111.298 77.4028 111.017L78.4762 110.524L78.0827 111.638C77.8516 112.292 77.6306 113.619 77.4307 115.52C77.2327 117.401 77.0597 119.794 76.909 122.544C76.6077 128.043 76.3964 134.95 76.2506 142.006C75.9589 156.117 75.9293 170.808 75.9628 175.996L75.9657 176.455L75.5096 176.497C68.8963 177.12 48.2319 177.304 41.3308 176.848L40.8765 176.818L40.8639 176.363L39.7854 137.439L39.7646 136.688L40.4653 136.959C42.5557 137.766 44.1987 138.731 45.8484 139.7L45.8876 139.723C46.6944 140.197 47.505 140.672 48.3773 141.136L45.8616 138.898M60.4705 80.3081C59.9891 79.8021 59.5332 79.3451 59.1087 78.9475C60.5821 81.6524 63.0486 85.224 65.5293 88.8161C69.1857 94.1107 72.873 99.45 73.4562 102.124C74.7427 108.007 71.2354 114.688 67.9292 120.986C66.2293 124.225 64.5826 127.362 63.668 130.237M323.5 176.894V267.5H0.5C0.500055 251.243 0.506077 237.498 1.08723 225.993C1.67452 214.367 2.84794 205.066 5.1791 197.801C7.50663 190.546 10.9787 185.349 16.1509 181.885C21.3333 178.413 28.282 176.641 37.6391 176.359L38.113 176.345L38.1239 175.871L39.0334 136.589L39.0483 135.944L38.4202 136.09L28.4462 138.412C31.4797 137.225 34.317 136.007 35.6311 135.274M45.8616 138.898C43.4898 137.025 42.1175 135.405 41.4253 133.864C40.7231 132.301 40.7436 130.869 41.0467 129.437C41.1966 128.728 41.4167 128.014 41.6509 127.288C41.6955 127.149 41.7407 127.01 41.786 126.871C41.9807 126.272 42.1795 125.66 42.3613 125.012C42.6917 123.834 42.9606 122.552 43.0198 121.093M45.8616 138.898L45.8506 138.888L46.183 138.514L45.8733 138.907C45.8694 138.904 45.8655 138.901 45.8616 138.898ZM35.6311 135.274L35.3876 134.837M35.6311 135.274C38.4428 133.708 39.4791 131.069 40.3342 128.275C40.454 127.884 40.5705 127.489 40.6875 127.092C41.2794 125.086 41.886 123.029 43.0198 121.093M43.0198 121.093C43.1791 120.821 43.3489 120.551 43.5305 120.285L43.0276 120.137C43.0355 120.464 43.0324 120.783 43.0198 121.093ZM64.1025 130.522C66.3099 128.576 68.5268 124.67 70.6779 120.88C72.8747 117.009 75.0027 113.26 76.9817 111.843C77.0327 111.639 77.0853 111.459 77.1399 111.304L77.6113 111.471L77.8198 111.925C77.691 111.985 77.5587 112.058 77.423 112.147C75.5698 120.259 75.398 165.945 75.4628 176C68.8787 176.62 48.2411 176.803 41.3637 176.349" stroke="#0062AA"/>
</svg>
