<svg width="117" height="116" viewBox="0 0 117 116" fill="none" xmlns="http://www.w3.org/2000/svg">
<path d="M104.587 62.1112C104.655 61.3635 104.876 60.7159 105.249 60.1684C105.621 59.6315 106.109 59.2344 106.714 58.9772C107.319 58.7201 108.006 58.6265 108.775 58.6966C109.555 58.7676 110.219 58.9843 110.768 59.3465C111.315 59.7195 111.718 60.2085 111.975 60.8135C112.243 61.4194 112.341 62.1122 112.27 62.8919C112.199 63.6716 111.989 64.3202 111.64 64.8376C111.292 65.3551 110.821 65.7322 110.229 65.969C109.646 66.2175 108.96 66.3057 108.169 66.2337C108.084 66.2259 107.994 66.2123 107.898 66.1928C107.802 66.1841 107.733 66.1724 107.692 66.1578L108.281 59.6854L109.467 59.7934L109.011 64.7919L108.323 64.1961C108.384 64.234 108.466 64.2738 108.57 64.3156C108.684 64.369 108.778 64.3991 108.853 64.4059C109.248 64.4419 109.597 64.393 109.9 64.2591C110.202 64.1358 110.446 63.9426 110.631 63.6795C110.816 63.4271 110.925 63.1193 110.958 62.7562C110.998 62.3183 110.936 61.9357 110.772 61.6084C110.607 61.2812 110.351 61.0209 110.003 60.8276C109.654 60.6343 109.213 60.508 108.68 60.4487C108.146 60.4 107.685 60.4388 107.297 60.5649C106.919 60.692 106.62 60.9017 106.399 61.1939C106.178 61.4968 106.047 61.8726 106.006 62.3212C105.963 62.7911 106.022 63.2111 106.182 63.581C106.342 63.951 106.609 64.2715 106.983 64.5425L106.238 65.977C105.611 65.5321 105.16 64.9902 104.884 64.3513C104.608 63.7123 104.509 62.9656 104.587 62.1112Z" fill="#222222"/>
<path d="M110.71 71.1824L103.536 69.3682L103.958 67.6994L111.132 69.5136L110.71 71.1824ZM108.376 72.8656C108.541 72.7412 108.671 72.6193 108.768 72.4999C108.864 72.3805 108.939 72.2168 108.991 72.0089C109.062 71.7281 109.047 71.481 108.947 71.2674C108.846 71.0538 108.676 70.8726 108.437 70.7237C108.206 70.5878 107.919 70.4765 107.576 70.3897L108.045 69.9111C108.617 70.0557 109.095 70.2872 109.479 70.6056C109.871 70.937 110.155 71.3019 110.331 71.7003C110.504 72.1092 110.544 72.4956 110.452 72.8595C110.386 73.1194 110.283 73.3533 110.142 73.561C110.011 73.7713 109.828 73.9295 109.591 74.0355L108.376 72.8656Z" fill="#222222"/>
<path d="M108.68 77.5835L101.784 74.8978L102.409 73.2939L109.304 75.9796L108.68 77.5835ZM106.156 78.9658C106.334 78.8626 106.479 78.7577 106.589 78.6512C106.7 78.5446 106.794 78.3914 106.872 78.1915C106.977 77.9217 106.992 77.6746 106.919 77.4502C106.845 77.2258 106.699 77.025 106.48 76.8477C106.267 76.6844 105.996 76.5385 105.666 76.41L106.191 75.993C106.741 76.207 107.187 76.4957 107.529 76.8591C107.877 77.2363 108.113 77.6335 108.239 78.0506C108.36 78.4777 108.353 78.8661 108.216 79.2159C108.119 79.4658 107.988 79.685 107.822 79.8738C107.666 80.0664 107.465 80.2006 107.216 80.2766L106.156 78.9658Z" fill="#222222"/>
<path d="M103.692 80.2533C104.344 80.6464 104.83 81.1394 105.149 81.7323C105.462 82.3344 105.601 82.9757 105.567 83.6562C105.542 84.3422 105.332 85.0113 104.939 85.6634C104.546 86.3155 104.055 86.8084 103.466 87.1419C102.88 87.4902 102.248 87.6664 101.569 87.6705C100.891 87.6747 100.225 87.4802 99.5729 87.0871C98.93 86.6995 98.4473 86.2019 98.1248 85.5943C97.8115 84.9922 97.6675 84.3481 97.6928 83.6621C97.7218 82.9908 97.9328 82.3291 98.3259 81.677C98.7191 81.0248 99.2084 80.5246 99.794 80.1763C100.389 79.8336 101.026 79.6602 101.704 79.6561C102.387 79.6667 103.049 79.8657 103.692 80.2533ZM102.77 81.7826C102.375 81.5446 101.977 81.4168 101.574 81.3994C101.18 81.3876 100.81 81.4715 100.464 81.651C100.127 81.8361 99.8508 82.1077 99.6348 82.4659C99.4244 82.815 99.3161 83.1817 99.3098 83.5661C99.3071 83.9652 99.4029 84.336 99.5972 84.6785C99.8006 85.0266 100.1 85.3196 100.495 85.5577C100.89 85.7958 101.289 85.9235 101.691 85.9409C102.094 85.9583 102.467 85.8699 102.809 85.6756C103.146 85.4905 103.42 85.2235 103.63 84.8744C103.846 84.5162 103.957 84.1449 103.964 83.7605C103.97 83.3761 103.871 83.0099 103.668 82.6618C103.465 82.3138 103.165 82.0207 102.77 81.7826Z" fill="#222222"/>
<path d="M99.4004 93.1487L93.775 88.3407L94.8934 87.0322L100.519 91.8401L99.4004 93.1487ZM96.5622 93.6221C96.7645 93.5834 96.9354 93.532 97.0749 93.4678C97.2144 93.4036 97.3539 93.29 97.4932 93.127C97.6814 92.9068 97.7776 92.6787 97.7819 92.4425C97.7862 92.2064 97.7144 91.9686 97.5663 91.7292C97.4194 91.5049 97.2114 91.2778 96.9424 91.0478L97.5755 90.827C98.0239 91.2103 98.3496 91.6298 98.5527 92.0855C98.7569 92.5563 98.8494 93.0093 98.8303 93.4444C98.8042 93.8876 98.6692 94.2519 98.4253 94.5373C98.2511 94.7411 98.0547 94.9048 97.8362 95.0284C97.6258 95.159 97.3909 95.2192 97.1315 95.2091L96.5622 93.6221Z" fill="#222222"/>
<path d="M84.6658 96.3892C85.2827 95.9614 85.9208 95.7147 86.5801 95.649C87.2305 95.5895 87.8485 95.7091 88.4341 96.0077C89.0198 96.3064 89.5326 96.773 89.9726 97.4075C90.4188 98.0509 90.6791 98.6991 90.7535 99.3523C90.8192 100.012 90.7026 100.634 90.404 101.22C90.1114 101.814 89.6435 102.334 89.0001 102.78C88.3568 103.227 87.7248 103.482 87.1042 103.547C86.4836 103.612 85.8924 103.493 85.3305 103.191C84.7659 102.904 84.2575 102.435 83.8053 101.782C83.7564 101.712 83.7088 101.634 83.6626 101.548C83.6076 101.469 83.5723 101.409 83.5567 101.367L88.8974 97.6638L89.5758 98.642L85.4513 101.502L85.4658 100.592C85.476 100.663 85.4985 100.752 85.5332 100.858C85.5652 100.98 85.6025 101.071 85.6453 101.133C85.8714 101.459 86.1331 101.695 86.4303 101.841C86.7187 101.994 87.0233 102.057 87.3441 102.03C87.6561 102.009 87.962 101.895 88.2616 101.687C88.6229 101.437 88.8764 101.143 89.022 100.808C89.1675 100.472 89.2025 100.108 89.1269 99.7168C89.0513 99.3255 88.8651 98.9064 88.5684 98.4597C88.2628 98.019 87.9369 97.6903 87.5908 97.4735C87.2508 97.2655 86.898 97.1709 86.5325 97.1895C86.1581 97.2142 85.7858 97.3549 85.4156 97.6116C85.0279 97.8805 84.7436 98.1951 84.5627 98.5554C84.3819 98.9157 84.3076 99.3262 84.3399 99.7867L82.7621 100.137C82.7004 99.3705 82.8261 98.6765 83.1389 98.0549C83.4518 97.4334 83.9608 96.8781 84.6658 96.3892Z" fill="#222222"/>
<path d="M81.6205 106.898L78.4162 100.227L79.9677 99.4821L83.1721 106.153L81.6205 106.898ZM78.8328 106.185C79.0335 106.231 79.2107 106.253 79.3642 106.251C79.5178 106.248 79.6912 106.201 79.8845 106.108C80.1456 105.982 80.3257 105.813 80.4251 105.598C80.5244 105.384 80.5547 105.137 80.5159 104.859C80.4721 104.594 80.3736 104.302 80.2203 103.983L80.8887 104.037C81.1441 104.569 81.2726 105.084 81.2743 105.583C81.271 106.096 81.1727 106.548 80.9795 106.938C80.7766 107.333 80.5059 107.612 80.1676 107.774C79.9259 107.89 79.6801 107.961 79.4303 107.986C79.1851 108.02 78.9459 107.98 78.7127 107.866L78.8328 106.185Z" fill="#222222"/>
<path d="M75.3269 109.464L72.9896 102.443L74.6228 101.899L76.9602 108.92L75.3269 109.464ZM72.6515 108.405C72.8448 108.476 73.0177 108.52 73.1703 108.537C73.3229 108.554 73.501 108.529 73.7045 108.461C73.9793 108.37 74.1794 108.224 74.305 108.024C74.4305 107.824 74.4917 107.583 74.4884 107.301C74.4783 107.033 74.4174 106.732 74.3056 106.396L74.9618 106.533C75.1481 107.093 75.2107 107.621 75.1494 108.116C75.0814 108.624 74.9269 109.06 74.686 109.423C74.4349 109.789 74.1312 110.031 73.7751 110.15C73.5207 110.235 73.268 110.274 73.017 110.267C72.7694 110.27 72.5372 110.2 72.3202 110.058L72.6515 108.405Z" fill="#222222"/>
<path d="M70.2072 107.302C70.3238 108.054 70.257 108.743 70.0066 109.368C69.7456 109.995 69.343 110.513 68.7988 110.923C68.2562 111.343 67.6087 111.612 66.8562 111.729C66.1038 111.845 65.4106 111.785 64.7768 111.546C64.134 111.32 63.5933 110.948 63.1548 110.43C62.7164 109.912 62.4388 109.277 62.3221 108.525C62.2071 107.783 62.2792 107.093 62.5386 106.456C62.7996 105.83 63.2014 105.306 63.7439 104.885C64.2775 104.477 64.9206 104.215 65.673 104.098C66.4255 103.981 67.1231 104.036 67.7659 104.262C68.4104 104.498 68.9518 104.876 69.3903 105.394C69.8198 105.924 70.0921 106.56 70.2072 107.302ZM68.4426 107.576C68.3719 107.12 68.2141 106.732 67.9691 106.412C67.7257 106.102 67.4242 105.872 67.0644 105.722C66.7063 105.582 66.3205 105.544 65.9072 105.608C65.5045 105.671 65.1536 105.823 64.8547 106.064C64.5467 106.318 64.3237 106.63 64.1855 106.998C64.049 107.378 64.016 107.795 64.0867 108.251C64.1574 108.707 64.3152 109.095 64.5602 109.415C64.8052 109.735 65.1121 109.964 65.4808 110.102C65.8389 110.242 66.2193 110.281 66.6221 110.218C67.0354 110.154 67.3915 110.001 67.6905 109.76C67.9895 109.518 68.2072 109.207 68.3437 108.828C68.4803 108.449 68.5132 108.031 68.4426 107.576Z" fill="#222222"/>
<path d="M57.3119 112.275L57.4289 104.875L59.15 104.903L59.033 112.302L57.3119 112.275ZM55.1375 110.39C55.2963 110.521 55.4449 110.62 55.5833 110.687C55.7216 110.753 55.8981 110.788 56.1125 110.791C56.4021 110.796 56.6392 110.725 56.8239 110.577C57.0085 110.43 57.1459 110.223 57.2359 109.956C57.315 109.7 57.3574 109.395 57.363 109.041L57.9367 109.388C57.9274 109.978 57.8119 110.497 57.5904 110.944C57.3579 111.401 57.0679 111.761 56.7205 112.024C56.3624 112.286 55.9957 112.415 55.6204 112.409C55.3523 112.404 55.101 112.358 54.8664 112.268C54.6317 112.189 54.4355 112.047 54.2779 111.84L55.1375 110.39Z" fill="#222222"/>
<path d="M45.4213 102.998C46.1439 103.202 46.7402 103.537 47.2102 104.004C47.6699 104.468 47.9709 105.021 48.113 105.663C48.2551 106.305 48.2214 106.997 48.0118 107.74C47.7993 108.494 47.4647 109.107 47.0082 109.58C46.5413 110.05 45.987 110.356 45.3451 110.498C44.7004 110.651 44.0013 110.621 43.2478 110.408C42.4943 110.196 41.895 109.871 41.4501 109.433C41.0052 108.996 40.7206 108.464 40.5962 107.839C40.4585 107.22 40.4974 106.529 40.7129 105.765C40.7361 105.683 40.7661 105.597 40.8026 105.507C40.8288 105.414 40.8529 105.348 40.8748 105.31L47.13 107.074L46.8069 108.22L41.9761 106.857L42.688 106.289C42.6395 106.342 42.5853 106.416 42.5252 106.511C42.4519 106.613 42.405 106.7 42.3846 106.772C42.2769 107.154 42.2612 107.506 42.3374 107.828C42.4033 108.148 42.5486 108.423 42.7733 108.653C42.9877 108.881 43.2704 109.044 43.6213 109.143C44.0445 109.262 44.432 109.271 44.7838 109.17C45.1355 109.069 45.4383 108.864 45.6921 108.557C45.9459 108.25 46.1508 107.84 46.3067 107.326C46.4522 106.81 46.4985 106.35 46.4456 105.945C46.3898 105.55 46.2384 105.218 45.9914 104.948C45.7342 104.674 45.3888 104.477 44.9552 104.354C44.5011 104.226 44.0775 104.207 43.6844 104.297C43.2914 104.387 42.9275 104.59 42.5927 104.908L41.3187 103.914C41.8708 103.379 42.4861 103.034 43.1647 102.88C43.8433 102.726 44.5955 102.765 45.4213 102.998Z" fill="#222222"/>
<path d="M35.4006 107.353L38.503 100.634L40.0657 101.356L36.9633 108.074L35.4006 107.353ZM34.1752 104.749C34.2673 104.933 34.3632 105.084 34.4628 105.201C34.5624 105.318 34.7096 105.421 34.9043 105.511C35.1672 105.632 35.4129 105.663 35.6414 105.603C35.8698 105.543 36.0792 105.41 36.2695 105.202C36.4456 105 36.6078 104.738 36.7562 104.417L37.1403 104.966C36.893 105.502 36.5776 105.929 36.194 106.248C35.7962 106.573 35.3853 106.784 34.9613 106.884C34.5276 106.979 34.1404 106.948 33.7996 106.791C33.5562 106.678 33.3453 106.534 33.1671 106.357C32.9843 106.19 32.8627 105.98 32.802 105.727L34.1752 104.749Z" fill="#222222"/>
<path d="M29.4308 104.146L33.3461 97.8662L34.8068 98.777L30.8914 105.056L29.4308 104.146ZM28.5394 101.41C28.6078 101.604 28.6842 101.765 28.7684 101.894C28.8527 102.022 28.9858 102.143 29.1678 102.257C29.4136 102.41 29.6535 102.471 29.8877 102.44C30.1218 102.409 30.3462 102.303 30.5609 102.12C30.7608 101.942 30.9543 101.702 31.1416 101.402L31.4543 101.995C31.1422 102.495 30.776 102.88 30.3557 103.149C29.9205 103.421 29.4864 103.58 29.0534 103.626C28.6112 103.666 28.2308 103.587 27.9123 103.389C27.6848 103.247 27.4936 103.077 27.3388 102.879C27.1783 102.691 27.0837 102.467 27.055 102.209L28.5394 101.41Z" fill="#222222"/>
<path d="M27.8609 98.8375C27.3576 99.4089 26.7857 99.7985 26.1454 100.006C25.497 100.207 24.8412 100.229 24.1778 100.074C23.5074 99.9265 22.8864 99.6011 22.315 99.0978C21.7436 98.5945 21.3465 98.0231 21.1236 97.3838C20.8855 96.7454 20.8251 96.0919 20.9423 95.4234C21.0595 94.7548 21.3698 94.1349 21.8731 93.5635C22.3693 93.0001 22.9452 92.6141 23.6006 92.4053C24.249 92.2047 24.9084 92.1781 25.5789 92.3256C26.2342 92.474 26.8475 92.7999 27.4189 93.3032C27.9904 93.8065 28.3951 94.3773 28.6331 95.0158C28.864 95.6622 28.9209 96.3197 28.8037 96.9882C28.6714 97.6577 28.3571 98.2741 27.8609 98.8375ZM26.5209 97.6572C26.8257 97.3112 27.0226 96.9415 27.1117 96.5483C27.1937 96.1632 27.1772 95.7843 27.0624 95.4116C26.9405 95.047 26.7227 94.7265 26.4088 94.45C26.103 94.1807 25.7615 94.0085 25.3844 93.9336C24.9922 93.8597 24.6102 93.8877 24.2385 94.0177C23.8597 94.1556 23.5179 94.3977 23.2131 94.7437C22.9083 95.0898 22.7113 95.4594 22.6223 95.8526C22.5332 96.2458 22.5537 96.6282 22.6836 96.9999C22.8055 97.3646 23.0193 97.6816 23.3252 97.9509C23.639 98.2274 23.9845 98.4031 24.3616 98.478C24.7387 98.5528 25.1166 98.5213 25.4954 98.3833C25.8742 98.2453 26.216 98.0033 26.5209 97.6572Z" fill="#222222"/>
<path d="M15.9123 92.2561L21.6613 87.5966L22.7452 88.9339L16.9962 93.5934L15.9123 92.2561ZM15.9619 89.3791C15.9632 89.5851 15.9827 89.7625 16.0205 89.9113C16.0583 90.0602 16.1447 90.2179 16.2798 90.3845C16.4621 90.6095 16.669 90.7455 16.9005 90.7926C17.1319 90.8397 17.3788 90.8122 17.6411 90.71C17.8883 90.6063 18.1494 90.443 18.4244 90.2201L18.5266 90.8828C18.0683 91.2542 17.5967 91.4984 17.1117 91.6154C16.6116 91.7308 16.1494 91.7396 15.725 91.6418C15.2939 91.5356 14.9601 91.3368 14.7238 91.0452C14.5549 90.8369 14.4296 90.614 14.3477 90.3767C14.2574 90.1462 14.2408 89.9042 14.2978 89.6509L15.9619 89.3791Z" fill="#222222"/>
<path d="M15.4106 77.1986C15.7175 77.8837 15.8425 78.5563 15.7856 79.2164C15.7244 79.8667 15.4931 80.4521 15.0917 80.9727C14.6903 81.4933 14.1373 81.9115 13.4326 82.2272C12.7181 82.5472 12.033 82.6837 11.3773 82.6367C10.7172 82.5798 10.1269 82.3507 9.60628 81.9493C9.07588 81.5523 8.65065 80.9965 8.33058 80.282C8.01051 79.5675 7.8757 78.8993 7.92614 78.2774C7.97658 77.6555 8.20199 77.0962 8.60235 76.5995C8.98854 76.0975 9.54378 75.6842 10.2681 75.3598C10.3464 75.3247 10.4318 75.2923 10.5242 75.2626C10.6123 75.2232 10.6781 75.1996 10.7217 75.1918L13.3787 81.1231L12.2923 81.6098L10.2403 77.0292L11.1327 77.2112C11.0608 77.2081 10.9693 77.2138 10.8583 77.2283C10.7331 77.2374 10.6363 77.2573 10.5677 77.288C10.2056 77.4502 9.92528 77.6639 9.72678 77.9291C9.5239 78.1845 9.40605 78.4723 9.37323 78.7926C9.33603 79.103 9.39196 79.4246 9.54104 79.7574C9.7208 80.1587 9.96235 80.4618 10.2657 80.6667C10.569 80.8717 10.9199 80.973 11.3185 80.9707C11.717 80.9685 12.1632 80.8626 12.657 80.6532C13.1463 80.434 13.5294 80.1742 13.8062 79.8739C14.0733 79.5781 14.2313 79.2487 14.2803 78.886C14.3249 78.5134 14.2552 78.1216 14.071 77.7105C13.8781 77.2799 13.6212 76.9425 13.3004 76.6984C12.9795 76.4544 12.5898 76.3058 12.1312 76.2527L12.0774 74.6374C12.8421 74.7179 13.5011 74.9691 14.0544 75.3911C14.6078 75.8131 15.0598 76.4156 15.4106 77.1986Z" fill="#222222"/>
<path d="M5.63556 72.2921L12.7808 70.3664L13.2287 72.0284L6.08348 73.9541L5.63556 72.2921ZM6.84834 69.6826C6.76594 69.8715 6.71181 70.0415 6.68596 70.1929C6.66011 70.3443 6.67509 70.5235 6.73091 70.7306C6.80626 71.0102 6.94015 71.2185 7.13257 71.3555C7.32499 71.4924 7.5618 71.5675 7.84301 71.5805C8.11107 71.586 8.41597 71.5427 8.7577 71.4506L8.58221 72.0977C8.01266 72.2512 7.48252 72.283 6.99178 72.1931C6.48789 72.0957 6.06185 71.9162 5.71366 71.6546C5.36268 71.3826 5.13835 71.0654 5.04067 70.703C4.9709 70.4441 4.94674 70.1896 4.96819 69.9394C4.97927 69.6921 5.06226 69.4642 5.21715 69.2559L6.84834 69.6826Z" fill="#222222"/>
<path d="M4.26952 65.6734L11.5992 64.6546L11.8362 66.3595L4.50651 67.3783L4.26952 65.6734ZM5.79851 63.2357C5.69318 63.4128 5.61825 63.5748 5.57371 63.7217C5.52917 63.8687 5.52166 64.0484 5.55119 64.2608C5.59106 64.5477 5.6979 64.771 5.87172 64.9309C6.04554 65.0908 6.27114 65.1948 6.54852 65.2429C6.8138 65.2818 7.12172 65.2769 7.47227 65.2282L7.21739 65.8483C6.63314 65.9295 6.10317 65.8949 5.62749 65.7445C5.1397 65.5849 4.7394 65.3536 4.42659 65.0506C4.11229 64.737 3.9293 64.3942 3.87762 64.0225C3.84071 63.7569 3.8485 63.5013 3.901 63.2558C3.94287 63.0118 4.05365 62.7961 4.23334 62.6087L5.79851 63.2357Z" fill="#222222"/>
<path d="M7.31358 60.8021C6.5525 60.778 5.88796 60.5853 5.31996 60.224C4.7523 59.8519 4.31718 59.3606 4.01458 58.7502C3.70127 58.1394 3.55666 57.4534 3.58074 56.6923C3.60482 55.9313 3.79234 55.2612 4.1433 54.6821C4.48388 54.092 4.94919 53.6292 5.53923 53.2938C6.12927 52.9584 6.80484 52.8027 7.56592 52.8268C8.31628 52.8505 8.98065 53.0486 9.55903 53.421C10.1267 53.7931 10.5672 54.2845 10.8805 54.8953C11.1834 55.495 11.3228 56.1755 11.2988 56.9365C11.2747 57.6976 11.0923 58.3732 10.7518 58.9633C10.4005 59.5531 9.9298 60.0157 9.33976 60.3511C8.73934 60.6755 8.06394 60.8258 7.31358 60.8021ZM7.37005 59.0173C7.83099 59.0319 8.24138 58.9483 8.60123 58.7665C8.95036 58.5844 9.23201 58.3305 9.4462 58.0046C9.64966 57.6784 9.75801 57.3063 9.77123 56.8882C9.78412 56.4809 9.69935 56.108 9.51691 55.7696C9.3241 55.4201 9.05923 55.1435 8.72231 54.9397C8.37467 54.7355 7.97039 54.6262 7.50945 54.6116C7.04851 54.597 6.63812 54.6806 6.27827 54.8624C5.91842 55.0441 5.6366 55.3034 5.43279 55.6404C5.22933 55.9666 5.12115 56.3333 5.10826 56.7407C5.09504 57.1587 5.17964 57.537 5.36208 57.8754C5.54451 58.2138 5.80955 58.4851 6.15719 58.6892C6.50483 58.8933 6.90911 59.0027 7.37005 59.0173Z" fill="#222222"/>
<path d="M4.7435 47.4788L12.0006 48.9269L11.6637 50.615L4.40666 49.1669L4.7435 47.4788ZM6.98904 45.6795C6.83135 45.8121 6.70731 45.9404 6.61692 46.0646C6.52654 46.1887 6.46036 46.356 6.41838 46.5663C6.36172 46.8503 6.38917 47.0964 6.50074 47.3045C6.61231 47.5127 6.79116 47.6851 7.03731 47.8217C7.27504 47.9457 7.56744 48.0423 7.91452 48.1116L7.46989 48.6134C6.89143 48.498 6.40232 48.291 6.00256 47.9925C5.59438 47.6814 5.2924 47.3314 5.09662 46.9423C4.90294 46.5428 4.84282 46.159 4.91627 45.7909C4.96874 45.5279 5.06013 45.2891 5.19044 45.0746C5.31023 44.8579 5.48579 44.6906 5.7171 44.5727L6.98904 45.6795Z" fill="#222222"/>
<path d="M16.0184 37.4668C15.6856 38.1398 15.2467 38.6645 14.7016 39.041C14.1612 39.4079 13.5625 39.6024 12.9055 39.6245C12.2485 39.6466 11.5739 39.4865 10.8817 39.1442C10.1799 38.7972 9.63841 38.3559 9.25714 37.8204C8.88062 37.2753 8.68132 36.6742 8.65924 36.0172C8.62755 35.3554 8.78522 34.6737 9.13226 33.9719C9.4793 33.2701 9.90863 32.7406 10.4203 32.3834C10.9319 32.0262 11.5067 31.8438 12.1445 31.8362C12.7776 31.8142 13.4498 31.9791 14.1612 32.3309C14.2381 32.369 14.3174 32.4142 14.3992 32.4666C14.4857 32.5094 14.5458 32.5451 14.5795 32.5737L11.6986 38.3996L10.6315 37.8719L12.8564 33.3727L13.2844 34.1766C13.241 34.1192 13.1783 34.0524 13.0965 33.976C13.0097 33.8852 12.9327 33.8232 12.8654 33.7899C12.5097 33.614 12.1664 33.534 11.8355 33.5499C11.5094 33.5561 11.2124 33.6485 10.9446 33.8272C10.6816 33.9962 10.4692 34.2442 10.3076 34.571C10.1127 34.9652 10.0328 35.3445 10.068 35.7088C10.1032 36.0732 10.2486 36.4083 10.5041 36.7141C10.7597 37.02 11.1254 37.2965 11.6013 37.5439C12.082 37.7815 12.5262 37.9115 12.934 37.9337C13.3322 37.9511 13.6867 37.8632 13.9977 37.67C14.3133 37.4671 14.571 37.1638 14.7707 36.7601C14.9798 36.3371 15.0763 35.9242 15.0602 35.5213C15.044 35.1185 14.9104 34.7234 14.6592 34.336L15.8704 33.2659C16.2953 33.9067 16.5213 34.5748 16.5483 35.2702C16.5754 35.9655 16.3987 36.6977 16.0184 37.4668Z" fill="#222222"/>
<path d="M13.4691 26.9385L19.5183 31.201L18.5268 32.6081L12.4776 28.3456L13.4691 26.9385ZM16.2509 26.2025C16.053 26.2599 15.8876 26.327 15.7547 26.4039C15.6218 26.4808 15.4936 26.6069 15.37 26.7823C15.2032 27.019 15.1287 27.2551 15.1464 27.4906C15.1641 27.7262 15.2579 27.9562 15.4276 28.1808C15.5948 28.3904 15.823 28.5972 16.1123 28.801L15.5026 29.0798C15.0204 28.7401 14.657 28.3528 14.4123 27.918C14.1651 27.4683 14.0307 27.0259 14.0092 26.5909C13.9939 26.1472 14.0943 25.7719 14.3105 25.465C14.465 25.2458 14.6452 25.0645 14.8513 24.9211C15.0485 24.7714 15.2768 24.6896 15.536 24.6754L16.2509 26.2025Z" fill="#222222"/>
<path d="M17.8222 21.4812L23.2833 26.475L22.1217 27.7453L16.6606 22.7515L17.8222 21.4812ZM20.6747 21.1032C20.4712 21.135 20.2986 21.1807 20.1571 21.2402C20.0155 21.2996 19.8723 21.4085 19.7276 21.5668C19.5322 21.7805 19.4284 22.0053 19.4161 22.2412C19.4039 22.477 19.4678 22.7171 19.6077 22.9613C19.747 23.1904 19.9473 23.4244 20.2084 23.6632L19.5683 23.8627C19.133 23.4646 18.8215 23.0344 18.6339 22.5722C18.4455 22.0948 18.3682 21.639 18.4019 21.2047C18.4429 20.7626 18.59 20.4031 18.8433 20.126C19.0243 19.9282 19.226 19.7711 19.4486 19.6549C19.6632 19.5315 19.9 19.4791 20.1589 19.4979L20.6747 21.1032Z" fill="#222222"/>
<path d="M23.2127 20.9814C22.7422 20.3828 22.4628 19.7498 22.3748 19.0824C22.2951 18.4083 22.392 17.7593 22.6653 17.1351C22.932 16.5026 23.3647 15.951 23.9634 15.4805C24.562 15.0099 25.1959 14.723 25.8652 14.6199C26.5362 14.5017 27.1897 14.5609 27.8259 14.7975C28.462 15.0341 29.0154 15.4517 29.486 16.0504C29.9499 16.6406 30.225 17.2769 30.3113 17.9594C30.391 18.6334 30.2974 19.2867 30.0307 19.9193C29.7658 20.5367 29.334 21.0808 28.7354 21.5513C28.1367 22.0219 27.5019 22.3163 26.8309 22.4345C26.1532 22.5443 25.4963 22.4809 24.8602 22.2443C24.2258 21.9926 23.6767 21.5717 23.2127 20.9814ZM24.6166 19.8779C24.9016 20.2405 25.2294 20.5012 25.5999 20.6602C25.9637 20.8107 26.3393 20.8633 26.7266 20.8181C27.1073 20.7644 27.4621 20.6083 27.7909 20.3498C28.1113 20.098 28.3426 19.7934 28.4846 19.4362C28.6285 19.0639 28.6703 18.6832 28.61 18.2941C28.5431 17.8965 28.3671 17.5165 28.0821 17.1539C27.7971 16.7913 27.4694 16.5306 27.0989 16.3716C26.7284 16.2127 26.3486 16.1634 25.9595 16.2237C25.5788 16.2774 25.2282 16.4301 24.9078 16.682C24.579 16.9405 24.3435 17.2483 24.2014 17.6056C24.0594 17.9628 24.0218 18.3402 24.0887 18.7377C24.1557 19.1353 24.3316 19.5154 24.6166 19.8779Z" fill="#222222"/>
<path d="M31.7065 10.4736L35.2604 16.9644L33.7506 17.7911L30.1966 11.3002L31.7065 10.4736ZM34.5281 11.0378C34.3252 11.0022 34.1471 10.9896 33.9939 11.0002C33.8407 11.0107 33.6701 11.0674 33.4819 11.1705C33.2279 11.3095 33.057 11.4887 32.9692 11.7079C32.8814 11.9272 32.8643 12.175 32.9178 12.4514C32.9755 12.7132 33.0894 12.9994 33.2594 13.3098L32.5891 13.2916C32.3059 12.7742 32.1501 12.2665 32.1219 11.7684C32.098 11.2557 32.1722 10.7994 32.3444 10.3994C32.5261 9.99422 32.7816 9.70151 33.1108 9.52123C33.346 9.39247 33.5877 9.30906 33.8358 9.271C34.0788 9.22353 34.3198 9.25054 34.5588 9.35201L34.5281 11.0378Z" fill="#222222"/>
<path d="M46.8621 12.5813C46.1322 12.7569 45.448 12.7559 44.8097 12.5785C44.1818 12.3986 43.649 12.0635 43.2112 11.5731C42.7733 11.0827 42.4642 10.4622 42.2836 9.71138C42.1005 8.95017 42.0925 8.25166 42.2595 7.61585C42.4369 6.97754 42.7708 6.43947 43.2611 6.00166C43.749 5.55341 44.3735 5.23776 45.1347 5.0547C45.896 4.87164 46.5776 4.86215 47.1796 5.02623C47.7816 5.19031 48.2898 5.51482 48.7043 5.99977C49.1267 6.47179 49.4306 7.09362 49.6162 7.86526C49.6363 7.94868 49.6524 8.03856 49.6645 8.13492C49.6871 8.22877 49.6982 8.2978 49.6978 8.34202L43.3787 9.86168L43.1003 8.70422L47.9804 7.53062L47.6373 8.37425C47.6535 8.30417 47.6647 8.21322 47.6709 8.10142C47.6851 7.97669 47.6834 7.87783 47.6658 7.80483C47.573 7.41901 47.4146 7.10414 47.1904 6.86021C46.9768 6.61378 46.7155 6.44495 46.4068 6.35374C46.1085 6.26002 45.7821 6.25579 45.4276 6.34105C45 6.44387 44.6576 6.62548 44.4004 6.8859C44.1431 7.14632 43.9789 7.47261 43.9078 7.86476C43.8366 8.25691 43.8585 8.71493 43.9735 9.23881C44.0988 9.76019 44.2836 10.1846 44.5278 10.5119C44.7695 10.8288 45.0641 11.0448 45.4116 11.1597C45.7696 11.2722 46.1676 11.2758 46.6055 11.1705C47.0643 11.0601 47.4432 10.8697 47.7422 10.5993C48.0412 10.3288 48.2589 9.9731 48.3956 9.53211L49.9931 9.77666C49.7732 10.5134 49.405 11.1149 48.8883 11.5811C48.3717 12.0473 47.6963 12.3807 46.8621 12.5813Z" fill="#222222"/>
<path d="M53.5139 3.86365L54.0981 11.2407L52.3822 11.3766L51.798 3.99954L53.5139 3.86365ZM55.8571 5.53392C55.6865 5.41833 55.5292 5.33396 55.3852 5.28082C55.2411 5.22767 55.0621 5.20957 54.8483 5.2265C54.5596 5.24936 54.3304 5.34283 54.1605 5.5069C53.9906 5.67097 53.8734 5.89004 53.8091 6.16409C53.7545 6.42661 53.7413 6.73428 53.7692 7.0871L53.1652 6.79604C53.1186 6.20801 53.1845 5.68101 53.3627 5.21504C53.5509 4.73754 53.8054 4.35159 54.1264 4.05722C54.458 3.76199 54.8109 3.59956 55.1851 3.56993C55.4524 3.54877 55.707 3.57163 55.949 3.63854C56.1902 3.69475 56.399 3.81808 56.5754 4.00851L55.8571 5.53392Z" fill="#222222"/>
<path d="M60.4329 3.73008L60.082 11.1219L58.3626 11.0403L58.7135 3.64845L60.4329 3.73008ZM62.5466 5.68254C62.392 5.54636 62.2466 5.44282 62.1104 5.37193C61.9742 5.30105 61.799 5.26052 61.5847 5.25035C61.2955 5.23661 61.0562 5.30041 60.867 5.44175C60.6777 5.58308 60.5339 5.78562 60.4355 6.04937C60.3483 6.30292 60.2963 6.60645 60.2795 6.95998L59.7171 6.59506C59.745 6.00586 59.8768 5.49138 60.1124 5.05161C60.3593 4.60164 60.6605 4.25088 61.016 3.99934C61.3822 3.7483 61.7528 3.63168 62.1277 3.64948C62.3956 3.6622 62.6453 3.717 62.8769 3.81389C63.109 3.90007 63.3006 4.04874 63.4516 4.25991L62.5466 5.68254Z" fill="#222222"/>
<path d="M64.301 7.55666C64.4617 6.81234 64.7709 6.19334 65.2285 5.69965C65.6967 5.20822 66.2582 4.86861 66.9132 4.68083C67.5704 4.48257 68.2712 4.46377 69.0155 4.62443C69.7598 4.7851 70.3852 5.09015 70.8916 5.5396C71.4108 5.98082 71.7823 6.52182 72.006 7.1626C72.2298 7.80338 72.2614 8.49592 72.1007 9.24025C71.9423 9.97408 71.6279 10.592 71.1575 11.0939C70.6893 11.5853 70.1266 11.9301 69.4694 12.1284C68.8249 12.3184 68.1306 12.3331 67.3862 12.1725C66.6419 12.0118 66.0102 11.7109 65.491 11.2696C64.9741 10.8179 64.6037 10.2717 64.38 9.63092C64.169 8.98192 64.1426 8.2905 64.301 7.55666ZM66.0465 7.93343C65.9492 8.38422 65.9576 8.80295 66.0716 9.18964C66.1879 9.56584 66.387 9.8886 66.669 10.1579C66.9533 10.4168 67.2998 10.5903 67.7087 10.6786C68.1071 10.7646 68.4891 10.7483 68.8548 10.6297C69.2333 10.503 69.5531 10.2922 69.8142 9.99748C70.0776 9.69226 70.2579 9.31426 70.3552 8.86348C70.4525 8.41269 70.4441 7.99396 70.3301 7.60727C70.2161 7.22059 70.0117 6.89669 69.717 6.63558C69.4327 6.37673 69.0914 6.20431 68.693 6.11832C68.2842 6.03006 67.8969 6.04521 67.5312 6.16377C67.1655 6.28232 66.8509 6.4942 66.5876 6.79942C66.3242 7.10464 66.1438 7.48265 66.0465 7.93343Z" fill="#222222"/>
<path d="M77.8099 7.39452L75.0714 14.2693L73.4722 13.6323L76.2108 6.75752L77.8099 7.39452ZM79.1727 9.92882C79.0709 9.74973 78.9671 9.60449 78.8614 9.49311C78.7557 9.38174 78.6032 9.28636 78.404 9.20698C78.1349 9.09982 77.888 9.08225 77.663 9.15427C77.4381 9.22629 77.2361 9.37096 77.0572 9.5883C76.8922 9.79964 76.7442 10.0697 76.6133 10.3985L76.2003 9.87033C76.4185 9.32234 76.7107 8.8788 77.0766 8.53972C77.4565 8.19464 77.8555 7.96105 78.2736 7.83897C78.7016 7.72086 79.0899 7.73126 79.4387 7.87017C79.6877 7.96939 79.906 8.10251 80.0935 8.26954C80.2849 8.4266 80.4176 8.62955 80.4916 8.87838L79.1727 9.92882Z" fill="#222222"/>
<path d="M89.4925 23.4144C88.9403 22.9058 88.5603 22.3369 88.3524 21.7079C88.1523 21.0861 88.1341 20.4569 88.2978 19.8202C88.4615 19.1835 88.8049 18.5812 89.3281 18.0133C89.8586 17.4375 90.4344 17.042 91.0556 16.8268C91.6846 16.6189 92.3175 16.5968 92.9541 16.7604C93.5981 16.9162 94.2079 17.2593 94.7837 17.7898C95.3595 18.3203 95.7468 18.8813 95.9456 19.4727C96.1444 20.0642 96.1578 20.6671 95.9856 21.2813C95.8286 21.8949 95.4812 22.4936 94.9434 23.0773C94.8853 23.1404 94.8196 23.2038 94.7463 23.2675C94.6809 23.3385 94.6297 23.3861 94.5928 23.4104L89.8128 19.0067L90.6195 18.1312L94.3109 21.5321L93.419 21.7166C93.4863 21.6911 93.5681 21.6498 93.6644 21.5927C93.7759 21.535 93.8571 21.4786 93.908 21.4233C94.1768 21.1315 94.3502 20.8246 94.4281 20.5026C94.5139 20.1879 94.5087 19.8769 94.4127 19.5697C94.3245 19.2697 94.1463 18.9962 93.8781 18.7491C93.5547 18.4512 93.2132 18.2678 92.8537 18.1991C92.4941 18.1303 92.1317 18.1755 91.7663 18.3347C91.4009 18.4939 91.0326 18.767 90.6614 19.1541C90.298 19.5485 90.0483 19.9382 89.9123 20.3233C89.7836 20.7005 89.7682 21.0654 89.8661 21.4182C89.9719 21.7781 90.1905 22.1107 90.5218 22.4159C90.8688 22.7357 91.2379 22.9445 91.629 23.0423C92.0201 23.1401 92.4368 23.123 92.8792 22.9911L93.5654 24.4544C92.8309 24.6818 92.1262 24.7107 91.4513 24.541C90.7764 24.3713 90.1235 23.9958 89.4925 23.4144Z" fill="#222222"/>
<path d="M100.48 24.1172L94.6793 28.7121L93.6105 27.3628L99.4113 22.7679L100.48 24.1172ZM100.398 26.9936C100.399 26.7876 100.382 26.6099 100.346 26.4607C100.31 26.3115 100.225 26.1528 100.092 25.9846C99.9119 25.7576 99.7066 25.6193 99.4757 25.5696C99.2448 25.5199 98.9976 25.5447 98.7341 25.6439C98.4858 25.7449 98.2229 25.9052 97.9454 26.125L97.8506 25.4613C98.313 25.095 98.7874 24.8561 99.2736 24.7445C99.775 24.6347 100.237 24.6311 100.661 24.7337C101.09 24.8446 101.422 25.0472 101.655 25.3415C101.822 25.5516 101.944 25.7758 102.024 26.0141C102.111 26.2456 102.125 26.4877 102.065 26.7404L100.398 26.9936Z" fill="#222222"/>
<path d="M104.335 29.6068L98.0119 33.451L97.1177 31.9801L103.441 28.1359L104.335 29.6068ZM103.899 32.4511C103.926 32.2467 103.93 32.0683 103.913 31.9157C103.895 31.7632 103.831 31.5953 103.719 31.412C103.569 31.1645 103.382 31.0019 103.159 30.9241C102.936 30.8463 102.688 30.8404 102.414 30.9064C102.155 30.976 101.875 31.1027 101.572 31.2865L101.56 30.6161C102.064 30.3097 102.564 30.1312 103.061 30.0805C103.572 30.0333 104.031 30.0868 104.438 30.2407C104.851 30.4039 105.155 30.6458 105.35 30.9666C105.489 31.1957 105.584 31.4333 105.633 31.6795C105.691 31.9201 105.675 32.1621 105.585 32.4054L103.899 32.4511Z" fill="#222222"/>
<path d="M103.388 35.0797C104.095 34.7979 104.781 34.7093 105.446 34.8138C106.115 34.9283 106.71 35.2049 107.231 35.6438C107.763 36.0787 108.169 36.6499 108.451 37.3573C108.733 38.0647 108.828 38.7539 108.738 39.4249C108.661 40.102 108.419 40.712 108.012 41.2551C107.605 41.7983 107.048 42.2107 106.34 42.4925C105.643 42.7703 104.955 42.854 104.276 42.7435C103.607 42.629 103.007 42.3543 102.476 41.9194C101.958 41.4905 101.559 40.9223 101.277 40.2149C100.995 39.5075 100.893 38.8153 100.969 38.1383C101.056 37.4573 101.303 36.8452 101.71 36.3021C102.131 35.765 102.69 35.3575 103.388 35.0797ZM104.048 36.7386C103.62 36.9093 103.277 37.1498 103.02 37.4601C102.772 37.7664 102.615 38.1117 102.549 38.496C102.493 38.8763 102.542 39.2608 102.697 39.6493C102.848 40.0279 103.074 40.336 103.377 40.5734C103.693 40.8168 104.046 40.9647 104.437 41.017C104.837 41.0654 105.251 41.0042 105.68 40.8336C106.108 40.6629 106.451 40.4224 106.708 40.1121C106.966 39.8018 107.12 39.4515 107.173 39.0612C107.229 38.6809 107.182 38.3015 107.031 37.9229C106.876 37.5343 106.648 37.2213 106.345 36.9839C106.043 36.7464 105.692 36.6035 105.291 36.5552C104.891 36.5068 104.477 36.5679 104.048 36.7386Z" fill="#222222"/>
<path d="M111.115 46.5123L103.875 48.0454L103.518 46.3614L110.758 44.8283L111.115 46.5123ZM109.761 49.0517C109.854 48.8677 109.917 48.7008 109.951 48.5511C109.985 48.4013 109.98 48.2215 109.936 48.0117C109.876 47.7284 109.753 47.5131 109.569 47.3659C109.384 47.2186 109.152 47.1308 108.872 47.1024C108.604 47.0823 108.297 47.1089 107.951 47.1822L108.162 46.5456C108.739 46.4234 109.27 46.4206 109.755 46.5371C110.253 46.6619 110.668 46.8644 111.002 47.1446C111.337 47.4353 111.544 47.7643 111.622 48.1315C111.678 48.3938 111.688 48.6492 111.653 48.8979C111.628 49.1442 111.533 49.3672 111.367 49.5668L109.761 49.0517Z" fill="#222222"/>
</svg>
