<svg width="301" height="159" viewBox="0 0 301 159" fill="none" xmlns="http://www.w3.org/2000/svg">
<g clip-path="url(#clip0_262_1719)">
<path d="M71.93 158.119L66.1512 158.11M71.93 158.119C71.3804 155.993 71.0354 152.801 70.8125 149.084C70.5863 145.31 70.4842 140.959 70.4305 136.559C70.3969 133.804 70.3824 131.033 70.3683 128.373C70.3373 122.519 70.3091 117.199 70.0884 113.759C70.0341 112.912 69.957 112.003 69.8769 111.06C69.6396 108.268 69.3763 105.169 69.6043 102.446C69.7576 100.615 70.1348 98.8961 70.9225 97.5128C71.7202 96.112 72.9321 95.0697 74.6996 94.6096L98.3794 93.201M71.93 158.119L107.993 157.985M66.1512 158.11L66.609 158.068L66.606 157.608C66.5749 152.963 66.6024 139.807 66.8733 127.171C67.0088 120.852 67.205 114.668 67.4849 109.745C67.6249 107.283 67.7855 105.141 67.9693 103.458C68.1551 101.755 68.3598 100.574 68.5714 99.9968L68.9767 98.8911L67.8997 99.3675C66.7746 99.8651 65.6747 101.096 64.6116 102.583C63.5328 104.093 62.4262 105.965 61.3146 107.853L61.2345 107.989C60.1437 109.841 59.0465 111.705 57.9449 113.298C57.2795 114.261 56.625 115.106 55.9839 115.782C56.5151 114.407 57.2168 112.962 58.0012 111.461C58.4847 110.535 59.0075 109.575 59.5383 108.6C60.2151 107.357 60.9047 106.09 61.5425 104.841C63.8307 100.362 65.7078 95.6571 64.7295 91.3441C64.4666 90.1819 63.6048 88.5719 62.477 86.774C61.3372 84.9571 59.8829 82.8836 58.3799 80.7772C58.0162 80.2674 57.6499 79.7562 57.2847 79.2463C55.507 76.7646 53.753 74.3159 52.4236 72.2309M66.1512 158.11L33.9311 158.056M52.4236 72.2309C52.9801 72.8041 53.5706 73.4401 54.1852 74.122C55.786 75.898 57.5275 77.9595 59.2254 79.9807C59.4086 80.1987 59.5914 80.4163 59.7733 80.633M52.4236 72.2309C55 74.8846 56.697 76.969 59.7733 80.633M59.7733 80.633C61.2751 82.4218 62.7267 84.1508 63.9887 85.5777C65.3877 87.1596 66.6013 88.4266 67.4075 88.972M59.7733 80.633C62.9608 84.4297 66.0003 88.02 67.4075 88.972M67.4075 88.972C67.5093 89.0406 67.6949 89.1323 67.8945 89.2261C68.1094 89.327 68.3852 89.4506 68.6985 89.5878C69.3257 89.8625 70.1138 90.1962 70.8883 90.5194C71.6631 90.8428 72.4261 91.1566 73.0039 91.3918C73.2928 91.5094 73.5359 91.6077 73.7114 91.6777C73.799 91.7127 73.8707 91.7411 73.9232 91.7615C73.9405 91.7682 73.9666 91.7785 73.9934 91.7883C74.0172 91.797 74.0417 91.8055 74.0613 91.8109M67.4075 88.972C67.9135 89.3135 73.9293 91.7753 74.0613 91.8109M74.0613 91.8109L74.0635 91.8115M74.0613 91.8109C76.6246 92.5139 81.1637 92.0532 85.8465 92.076C91.1009 92.1015 95.5 92.5 100 93M100 93C99.3862 92.8335 99.2061 93.1075 98.3794 93.201M100 93C99.3948 93.0253 99.1396 93.1739 98.3794 93.201M117.062 158.194L117.059 158.074L114.237 54.4041L114.197 52.9399L115.124 54.0741L137.048 80.9039L137.057 80.9149C137.622 81.6478 138.04 82.217 138.45 82.7762C139.021 83.5535 139.577 84.3114 140.495 85.4624L142.472 87.642C140.744 84.4667 138.094 80.0922 135.276 75.5686C132.924 71.7937 130.476 67.9506 128.367 64.6376C126.919 62.3635 125.63 60.3391 124.639 58.7579C124.042 57.8028 123.533 57.0076 123.108 56.3423C122.764 55.8045 122.474 55.3515 122.235 54.9674C121.687 54.0854 121.336 53.4571 121.081 52.7785C120.826 52.1009 120.673 51.394 120.493 50.367C120.426 49.9837 120.355 49.5598 120.275 49.0751C120.136 48.239 119.967 47.2218 119.732 45.9191C119.553 44.9228 119.398 44.2525 119.277 43.7255C119.213 43.4503 119.159 43.2142 119.114 42.9911C119.053 42.685 119.015 42.4098 119.027 42.1384C119.04 41.8567 119.106 41.6038 119.224 41.3345C119.336 41.0756 119.499 40.7952 119.704 40.4615C119.798 40.3083 119.905 40.1389 120.023 39.9512L120.059 39.8933C120.192 39.6817 120.34 39.4456 120.504 39.1782C121.163 38.1106 122.094 36.5367 123.379 34.0713C124.879 31.1896 126.286 28.6827 127.793 25.9975C128.395 24.9243 129.014 23.8227 129.66 22.6572L129.662 22.6532L138.484 6.00684L113.75 40.0252L113.707 40.0848L113.648 40.1293C112.615 40.9144 111.817 41.1661 110.968 41.4336L110.956 41.4374C110.13 41.698 109.224 41.9842 107.869 42.8289C106.901 43.4332 106.43 43.837 106.164 44.1089C106.039 44.2363 105.954 44.3391 105.873 44.4376L105.856 44.4589C105.773 44.5596 105.671 44.6828 105.532 44.7915C105.245 45.016 104.871 45.1247 104.248 45.2415C103.648 45.354 102.727 45.4869 101.27 45.6973L100.971 45.7403L100.964 45.7414L100.956 45.7423L55.547 50.8691C65.1774 51.2346 77.0324 50.7151 87.9688 50.2358C93.5044 49.9933 98.8045 49.761 103.461 49.659L103.62 49.6556L103.752 49.7445L110.614 54.3752L110.841 54.5289L110.834 54.8034L107.993 157.985M117.062 158.194L107.987 158.179L107.993 157.985M117.062 158.194H301M33.9311 158.056L33.9277 157.939L32.9258 123.082L32.9044 122.34L33.6 122.599C35.544 123.323 37.072 124.188 38.6046 125.055L38.6413 125.076C39.2825 125.439 39.9261 125.803 40.6057 126.161L38.5902 124.432C36.3858 122.754 35.1038 121.298 34.4552 119.906C33.7954 118.49 33.8153 117.192 34.0991 115.899C34.2392 115.261 34.4446 114.618 34.6622 113.968C34.7038 113.843 34.7457 113.719 34.7879 113.594C34.9687 113.057 35.153 112.511 35.3214 111.932C35.6155 110.922 35.8564 109.827 35.9232 108.59C34.9186 110.283 34.3701 112.076 33.8324 113.832C33.7235 114.188 33.615 114.542 33.5034 114.894C32.7074 117.4 31.7388 119.78 29.1122 121.19C27.9879 121.795 25.6676 122.766 23.1104 123.745L31.6888 121.82L32.3135 121.68L32.298 122.32L31.4532 157.498L31.4418 157.97L30.9697 157.986L29.0556 158.048M33.9311 158.056L29.0556 158.048M29.0556 158.048L0 157.939" stroke="#0062AA"/>
</g>
<defs>
<clipPath id="clip0_262_1719">
<rect width="301" height="159" fill="white"/>
</clipPath>
</defs>
</svg>
