<svg width="301" height="240" viewBox="0 0 301 240" fill="none" xmlns="http://www.w3.org/2000/svg">
<g clip-path="url(#clip0_262_1723)">
<path d="M218.803 158.492L121.806 158.597H121.722L121.643 158.569L121.397 158.481L121.103 158.375L121.095 158.072L118.273 54.4023L118.236 53.0537L119.101 54.1135L141.026 80.9433L141.033 80.953C141.586 81.6686 141.997 82.2294 142.4 82.7778M218.803 158.492L218.802 158.564L219.274 158.562L256.327 158.456M218.803 158.492L256.327 158.456M142.425 82.812L142.4 82.7778M142.425 82.812L142.433 82.8222M142.425 82.812C142.417 82.8006 142.408 82.7892 142.4 82.7778M142.425 82.812C142.428 82.8154 142.43 82.8188 142.433 82.8222M132.392 64.6015C130.943 62.3278 129.655 60.3039 128.666 58.724M132.392 64.6015L132.423 64.651M132.392 64.6015C132.402 64.618 132.413 64.6345 132.423 64.651M128.666 58.724L129.048 58.5012M128.666 58.724C128.097 57.8166 127.611 57.0553 127.2 56.4122M300.536 158.413L271.8 158.498L271.334 158.499V158.441M300.536 158.413V239.552H0.4646C0.464651 224.994 0.470245 212.685 1.01014 202.382C1.55574 191.97 2.64586 183.641 4.81154 177.135C6.97385 170.638 10.1994 165.984 15.0045 162.882C19.819 159.773 26.2744 158.186 34.9673 157.933L35.4075 157.921L35.4177 157.496L36.2626 122.319L36.2765 121.741L35.6929 121.872L26.427 123.951C29.2451 122.888 31.881 121.797 33.1018 121.141M300.536 158.413L271.334 158.441M127.134 56.308C126.79 55.7709 126.501 55.3185 126.261 54.9336C125.713 54.0523 125.366 53.4279 125.112 52.7551C124.859 52.0834 124.707 51.3816 124.528 50.3554C124.46 49.9735 124.39 49.5503 124.309 49.0659C124.171 48.2291 124.002 47.2099 123.767 45.9071C123.589 44.9201 123.435 44.248 123.313 43.7218M127.134 56.308L127.2 56.4122M127.134 56.308C127.156 56.3424 127.178 56.3771 127.2 56.4122M123.31 43.706L123.313 43.7218M123.31 43.706L123.292 43.6308M123.31 43.706C123.304 43.6806 123.298 43.6555 123.292 43.6308M123.31 43.706C123.311 43.7113 123.312 43.7165 123.313 43.7218M131.82 26.0297L131.809 26.05M131.82 26.0297L131.946 25.8054M131.82 26.0297C131.862 25.9551 131.904 25.8803 131.946 25.8054M131.82 26.0297C131.817 26.0365 131.813 26.0432 131.809 26.05M74.4038 128.375C74.4178 131.036 74.4325 133.805 74.4661 136.558C74.5197 140.957 74.6218 145.308 74.8479 149.08C75.0735 152.843 75.424 156.062 75.9838 158.181L76.0731 158.519L76.4353 158.518L111.495 158.419L111.945 158.418L111.957 157.983L114.798 54.8015L114.805 54.5609L114.6 54.4229L107.739 49.7922L107.614 49.708L107.462 49.7113C102.829 49.8128 97.5352 50.0446 92.0047 50.2869C88.1524 50.4557 84.1851 50.6295 80.2458 50.7677C72.7079 51.0323 65.2627 51.1673 58.8659 50.8937L104.954 45.6902L104.962 45.6893L104.969 45.6883L105.266 45.6453C106.725 45.4349 107.646 45.302 108.244 45.1896C108.868 45.0726 109.237 44.9644 109.517 44.7454C109.651 44.6398 109.751 44.5202 109.834 44.4195L109.851 44.398C109.932 44.2995 110.018 44.1953 110.145 44.0665C110.414 43.7914 110.887 43.3858 111.857 42.7807C113.215 41.934 114.124 41.6469 114.951 41.3862L114.962 41.3827L114.963 41.3822C115.811 41.1147 116.605 40.8641 117.634 40.0829L117.687 40.0422L117.726 39.9883L142.785 5.52393L133.69 22.6846L133.688 22.6884C133.086 23.7734 132.509 24.8029 131.946 25.8054M74.4038 128.375L74.4037 128.369M74.4038 128.375C74.4038 128.373 74.4038 128.371 74.4037 128.369M74.1238 113.755L74.5873 113.727M74.1238 113.755C74.0692 112.904 73.9919 111.994 73.9117 111.049L73.9115 111.047C73.6744 108.256 73.4121 105.168 73.6396 102.451C73.943 98.8263 75.1416 95.589 78.7047 94.6612C79.6414 94.4168 81.4988 94.2206 83.7862 94.0559C86.0915 93.8902 88.8816 93.7523 91.7152 93.6359C94.3264 93.5287 96.9712 93.4385 99.3126 93.3587M74.1238 113.755C74.3445 117.196 74.3727 122.517 74.4037 128.369M99.5094 93.352C100.736 93.3108 101.875 93.2723 102.878 93.2356C101.854 93.0466 100.724 92.9078 99.5159 92.8066C97.0986 92.6042 94.4128 92.555 91.733 92.5344C91.1038 92.5299 90.4747 92.5272 89.8495 92.5236C87.8196 92.5138 85.8327 92.5039 84.0271 92.4394C81.6727 92.3544 79.578 92.1744 78.0664 91.7597M99.5094 93.352L99.3126 93.3587M99.5094 93.352C99.444 93.3542 99.3784 93.3564 99.3126 93.3587M78.0664 91.7597L78.1935 91.329M78.0664 91.7597H78.0684L78.1935 91.329M78.0664 91.7597C78.032 91.7499 77.9816 91.7303 77.9467 91.7168M78.1935 91.329C80.7569 92.032 85.1637 92.0535 89.8465 92.0759C95.1793 92.1018 100.87 92.1296 104.604 93.1675M78.1935 91.329C78.0616 91.2932 72.1936 88.8994 71.6876 88.5579C70.2803 87.6059 67.3428 84.1071 64.1553 80.3105C61.0387 76.5984 57.6831 72.6017 55.2851 70.4221C55.5486 70.8918 55.8485 71.3922 56.1779 71.9177M77.9375 91.7132L77.9306 91.7105C77.8808 91.6918 77.8138 91.665 77.7322 91.6325M77.9375 91.7132L77.9467 91.7168M77.9375 91.7132C77.9404 91.7143 77.9435 91.7155 77.9467 91.7168M77.719 91.6272C77.5436 91.5574 77.3005 91.4589 77.0117 91.3415C76.4339 91.106 75.6709 90.7926 74.8962 90.4693C74.1219 90.146 73.3339 89.812 72.7069 89.5375C72.3937 89.4003 72.1181 89.2768 71.9036 89.1761C71.7033 89.082 71.5204 88.9916 71.4212 88.9247C70.6197 88.3825 69.4094 87.1196 68.0097 85.537C66.748 84.1103 65.2964 82.3814 63.7942 80.592M77.719 91.6272L77.7322 91.6325M77.719 91.6272C77.7235 91.629 77.7279 91.6307 77.7322 91.6325M63.7942 80.592C63.6125 80.3758 63.4302 80.1585 63.2474 79.9409M63.7942 80.592L63.2474 79.9409M63.2474 79.9409C61.5494 77.9198 59.8073 75.8576 58.2059 74.0809C57.4927 73.2896 56.8115 72.5597 56.1779 71.9177M56.1779 71.9177C57.5319 74.078 59.384 76.6636 61.2604 79.2831C61.6257 79.793 61.9919 80.3042 62.3556 80.814C63.8586 82.9204 65.3121 84.9926 66.4509 86.808C67.5794 88.6071 68.4354 90.2087 68.6956 91.3594C69.6679 95.6454 67.8032 100.331 65.514 104.812C64.876 106.061 64.1875 107.326 63.5115 108.567M56.1779 71.9177C55.7307 71.4646 55.3072 71.0554 54.9128 70.6993C56.2816 73.1216 58.573 76.32 60.8776 79.5369C64.2745 84.2783 67.7 89.0597 68.2418 91.4544C69.437 96.7227 66.1787 102.706 63.1072 108.346C61.5279 111.246 59.9981 114.056 59.1485 116.63M63.5115 108.567L63.5036 108.581M63.5115 108.567C63.5089 108.572 63.5063 108.576 63.5036 108.581M65.2609 108.022L65.3414 107.885C66.4534 105.998 67.5587 104.127 68.6358 102.62C69.175 101.866 69.7143 101.191 70.2517 100.647C70.7861 100.105 71.3386 99.6699 71.9083 99.4183L72.9055 98.9768L72.5399 99.9744C72.3252 100.56 72.1199 101.748 71.9342 103.451C71.7502 105.135 71.5895 107.278 71.4495 109.741C71.1696 114.665 70.9733 120.851 70.8379 127.17C70.5669 139.806 70.5394 152.962 70.5705 157.608L70.5732 158.019L70.1494 158.057C64.0056 158.615 44.8081 158.78 38.3969 158.371L37.9749 158.345L37.9632 157.937L36.9612 123.08L36.9419 122.407L37.5929 122.65C39.5349 123.373 41.0612 124.237 42.5938 125.105L42.6302 125.125C43.3798 125.55 44.1328 125.975 44.9432 126.39L42.6061 124.386M65.2609 108.022L65.2589 108.026M65.2609 108.022L65.2589 108.026M42.6061 124.386C40.4027 122.709 39.1278 121.258 38.4847 119.878C37.8324 118.479 37.8514 117.196 38.133 115.914C38.2722 115.279 38.4767 114.639 38.6943 113.989C38.7357 113.865 38.7777 113.74 38.8198 113.616C39.0007 113.079 39.1854 112.531 39.3543 111.951C39.6612 110.896 39.911 109.748 39.966 108.442M42.6061 124.386L42.5959 124.377L42.9047 124.042L42.617 124.394C42.6133 124.392 42.6097 124.389 42.6061 124.386ZM33.1018 121.141L32.8756 120.75M33.1018 121.141C35.7139 119.739 36.6767 117.375 37.4711 114.873C37.5824 114.523 37.6906 114.169 37.7993 113.814M39.966 108.442C40.114 108.198 40.2718 107.956 40.4405 107.718L39.9733 107.585C39.9806 107.878 39.9777 108.164 39.966 108.442ZM39.966 108.442C38.9134 110.174 38.3499 112.015 37.8003 113.81M37.7993 113.814L37.8003 113.81M37.7993 113.814L37.8003 113.81M59.5521 116.885C61.6028 115.143 63.6623 111.645 65.6607 108.251C67.7016 104.784 69.6785 101.427 71.517 100.158C71.5644 99.9753 71.6133 99.8141 71.664 99.6753L72.102 99.8248L72.2957 100.231C72.176 100.285 72.0531 100.35 71.927 100.43C70.2054 107.695 70.0458 148.608 70.106 157.612C63.9893 158.167 44.8167 158.331 38.4275 157.925M142.433 82.8222C143.002 83.5974 143.56 84.356 144.474 85.5027L146.668 87.9229C144.946 84.7223 142.213 80.2064 139.302 75.5348C136.961 71.7788 134.526 67.9536 132.423 64.651M123.292 43.6308C123.237 43.3885 123.188 43.1769 123.148 42.9779C123.088 42.6734 123.051 42.4046 123.063 42.1415C123.075 41.8697 123.139 41.6246 123.254 41.3608C123.365 41.1062 123.525 40.8289 123.731 40.4951C123.824 40.3424 123.93 40.1736 124.048 39.9864L124.085 39.9274C124.217 39.7157 124.366 39.4795 124.53 39.2118C125.189 38.1432 126.122 36.5681 127.408 34.1013C128.903 31.2276 130.307 28.7273 131.809 26.05M63.5036 108.581C62.9756 109.552 62.4553 110.508 61.9729 111.431C61.1508 113.003 60.4184 114.519 59.8777 115.955C60.5617 115.256 61.26 114.361 61.9696 113.335C63.0717 111.741 64.1692 109.877 65.2589 108.026M271.334 158.441L256.327 158.456M271.334 158.441V158.413L256.327 158.456" stroke="white"/>
</g>
<defs>
<clipPath id="clip0_262_1723">
<rect width="301" height="240" fill="white"/>
</clipPath>
</defs>
</svg>
